<?xml version="1.0" standalone="no"?>
<!DOCTYPE svg PUBLIC "-//W3C//DTD SVG 20010904//EN"
 "http://www.w3.org/TR/2001/REC-SVG-20010904/DTD/svg10.dtd">
<svg version="1.0" xmlns="http://www.w3.org/2000/svg"
 width="350.000000pt" height="420.000000pt" viewBox="0 0 350.000000 420.000000"
 preserveAspectRatio="xMidYMid meet">

<g transform="translate(0.000000,420.000000) scale(0.100000,-0.100000)"
fill="#000000" stroke="none">
<path d="M3121 3984 c-1 -5 12 -48 27 -95 16 -46 39 -126 52 -178 13 -52 26
-89 28 -83 5 15 -66 275 -89 327 -10 22 -18 35 -18 29z"/>
<path d="M1595 3971 c-42 -9 -117 -38 -125 -50 -3 -4 -25 -21 -50 -38 -87 -60
-113 -96 -121 -166 -4 -34 -10 -78 -14 -97 -4 -20 -3 -30 2 -23 5 7 14 9 22 4
10 -7 12 -23 6 -66 -10 -85 -14 -92 -36 -64 -19 25 -21 23 -32 -26 -3 -11 -3
13 0 53 5 67 4 74 -16 88 -11 8 -21 24 -21 35 0 12 -4 17 -11 14 -6 -4 1 16
16 45 l26 51 -32 -23 c-41 -30 -148 -163 -169 -210 -9 -21 -20 -35 -25 -30 -5
4 -5 2 -1 -5 7 -13 -47 -126 -100 -210 -19 -29 -31 -53 -27 -53 4 0 -9 -17
-27 -37 -19 -21 -9 -14 22 16 32 30 62 51 69 48 10 -4 10 -6 2 -6 -7 -1 -10
-8 -6 -18 4 -10 2 -14 -4 -10 -7 5 -9 0 -6 -13 3 -11 1 -20 -5 -20 -6 0 -8
-10 -5 -22 3 -17 2 -19 -5 -10 -7 10 -9 6 -9 -15 0 -15 -3 -46 -7 -68 -6 -39
-6 -39 12 10 22 59 84 187 89 182 1 -2 -1 -39 -7 -83 -5 -43 -11 -101 -14
-127 -5 -54 8 -167 24 -207 5 -14 14 -59 20 -100 5 -41 12 -92 16 -113 l6 -37
-73 26 c-117 42 -279 125 -326 167 -13 11 -23 17 -23 14 0 -12 87 -189 125
-254 22 -38 30 -61 21 -57 -8 3 -23 1 -34 -5 -18 -9 -25 -3 -60 52 -23 34 -70
123 -105 197 -121 253 -183 479 -213 774 -3 32 -9 54 -14 50 -30 -34 -124
-397 -142 -551 -11 -96 -13 -102 -25 -79 -7 13 -17 55 -22 93 -8 54 -9 39 -5
-77 4 -100 11 -165 24 -210 32 -108 205 -350 373 -521 l75 -77 -77 -4 c-57 -4
-91 -12 -136 -34 l-60 -29 -3 -62 c-2 -42 4 -85 17 -130 l21 -68 -25 -19 c-22
-15 -25 -23 -19 -52 4 -24 1 -41 -13 -61 -11 -15 -35 -56 -53 -90 -32 -58 -37
-63 -99 -86 -36 -14 -83 -30 -103 -37 -44 -13 -49 -20 -65 -80 -18 -67 -17
-104 3 -96 9 3 61 18 116 32 156 39 160 24 6 -20 l-138 -39 0 -618 0 -619 815
0 814 0 3 65 3 64 41 -26 c39 -25 41 -30 38 -65 -3 -33 -1 -38 16 -38 17 0 19
5 14 25 -8 31 1 31 51 0 39 -24 44 -24 258 -25 l217 0 -142 156 c-79 85 -143
163 -143 172 0 9 -4 23 -8 29 -5 8 -4 13 2 13 6 0 10 3 10 8 -3 19 2 33 11 27
16 -10 12 6 -7 29 l-17 21 20 -20 c12 -11 63 -67 115 -125 52 -58 138 -151
193 -208 l99 -102 523 0 523 0 -50 95 c-50 94 -50 96 -44 159 l7 64 -41 45
c-39 42 -42 51 -52 128 -6 46 -17 129 -25 185 -12 91 -12 106 2 150 9 27 24
58 34 69 40 48 52 77 42 99 -17 37 -63 86 -81 86 -10 0 -37 14 -59 30 -48 34
-50 48 -27 137 9 32 18 72 21 88 3 17 9 47 15 69 6 21 13 57 15 80 3 22 9 59
14 80 11 49 -13 102 -63 140 -28 21 -292 149 -350 169 -16 6 -16 9 -3 30 9 12
39 43 69 69 72 62 181 193 260 310 35 53 72 104 81 113 9 9 16 24 16 32 0 9
14 59 31 111 45 143 61 247 60 412 -1 154 -9 260 -20 260 -4 0 -4 -26 0 -57
14 -116 10 -291 -8 -331 l-17 -37 -7 135 c-14 241 -67 612 -82 570 -3 -8 -10
-49 -17 -90 -25 -148 -104 -442 -167 -619 -31 -85 -53 -110 -237 -259 -114
-93 -122 -97 -234 -134 -64 -20 -117 -36 -119 -34 -2 2 22 23 54 46 32 24 131
102 221 173 162 129 163 130 202 211 36 74 83 196 76 196 -2 0 -14 -10 -27
-21 -116 -103 -314 -204 -489 -251 -69 -18 -165 -36 -172 -31 -16 9 -7 129 13
183 24 65 39 114 46 152 8 41 20 25 28 -35 10 -67 21 -42 30 72 4 44 9 81 10
81 1 0 22 -18 46 -41 24 -22 53 -46 64 -51 l20 -11 -20 24 c-11 13 -26 30 -34
39 -34 36 -132 282 -118 296 1 2 25 -15 52 -37 52 -42 164 -104 172 -96 2 3
-6 8 -19 13 -35 11 -145 122 -178 180 -17 28 -46 94 -65 145 -26 70 -45 103
-77 136 -86 87 -260 190 -386 228 -56 17 -213 26 -267 16z m-262 -296 c-3 -9
-8 -14 -10 -11 -3 3 -2 9 2 15 9 16 15 13 8 -4z m410 -197 c83 -105 83 -100
11 -136 -35 -18 -76 -52 -61 -52 2 0 31 16 63 35 32 19 65 35 74 35 23 0 77
-58 59 -64 -87 -25 -165 -63 -154 -74 2 -3 0 -11 -6 -19 -17 -20 -7 -16 31 12
43 31 48 31 42 -1 -5 -25 -4 -26 44 -18 27 3 60 11 73 16 22 8 22 9 7 33 -12
18 -13 25 -4 25 23 0 41 -18 35 -34 -6 -14 -3 -15 28 -2 34 14 35 14 35 -7 0
-63 -44 -171 -89 -222 -15 -17 -2 -9 32 19 31 26 57 45 57 41 0 -14 -59 -252
-70 -280 -6 -16 -9 -27 -6 -24 19 19 114 186 141 247 37 83 38 82 51 -61 7
-84 -6 -133 -52 -194 -21 -28 -27 -31 -44 -21 -16 10 -27 7 -72 -24 -29 -20
-71 -40 -93 -44 -22 -4 -53 -13 -70 -19 -16 -7 -55 -16 -85 -20 -30 -4 -79
-18 -109 -32 l-54 -24 -22 21 -22 21 27 97 c14 53 36 118 47 143 11 26 34 89
49 140 27 89 29 103 27 264 -1 94 -4 208 -8 255 -4 54 -3 81 3 75 5 -5 43 -53
85 -107z m-379 76 c9 -3 16 -12 16 -20 0 -8 5 -14 10 -14 6 0 10 5 10 12 0 6
3 9 6 5 11 -11 -7 -46 -22 -40 -9 3 -14 -2 -14 -17 0 -43 -25 -13 -28 33 -3
50 -3 51 22 41z m-1000 -180 c28 -209 103 -458 202 -672 34 -74 39 -90 21 -70
-12 13 -46 37 -75 53 -29 15 -52 32 -52 37 0 4 -5 8 -12 8 -15 0 -143 98 -182
139 -16 17 -34 27 -39 24 -15 -9 -1 154 23 267 20 96 90 333 97 327 2 -2 10
-53 17 -113z m1131 80 c7 -42 -1 -59 -11 -20 -8 34 -24 33 -25 -1 -1 -19 -3
-22 -6 -10 -7 28 5 67 21 67 8 0 17 -15 21 -36z m346 -19 c15 -16 25 -33 22
-38 -7 -12 -20 0 -55 51 -33 49 -17 42 33 -13z m-711 8 c-11 -17 -11 -17 -6 0
3 10 6 24 7 30 0 9 2 9 5 0 3 -7 0 -20 -6 -30z m314 -75 l6 -108 -30 0 c-36 0
-36 4 -14 121 15 78 22 105 29 97 1 -2 5 -51 9 -110z m-207 -10 c-3 -7 -5 -2
-5 12 0 14 2 19 5 13 2 -7 2 -19 0 -25z m700 -50 c-8 -5 -23 4 -44 28 -45 50
-30 65 18 18 28 -27 35 -40 26 -46z m-570 -40 c-3 -8 -6 -5 -6 6 -1 11 2 17 5
13 3 -3 4 -12 1 -19z m533 -23 c17 -21 3 -35 -36 -35 -27 0 -34 4 -34 19 0 31
48 42 70 16z m-530 -26 c0 -17 -8 -38 -17 -47 -15 -16 -16 -15 -10 17 4 18 7
40 7 47 0 8 5 14 10 14 6 0 10 -14 10 -31z m68 24 c20 -5 23 -10 18 -34 -3
-16 -1 -29 4 -29 6 0 10 -4 10 -10 0 -5 -18 -10 -40 -10 l-40 0 0 45 c0 47 4
50 48 38z m852 -108 c0 -29 -5 -77 -11 -104 -13 -62 -35 -82 -25 -25 10 65 16
140 10 127 -8 -19 -24 -16 -24 4 0 18 28 53 42 53 4 0 8 -25 8 -55z m-994 -22
c-11 -11 -17 4 -9 23 7 18 8 18 11 1 2 -10 1 -21 -2 -24z m113 -11 c14 -14 13
-15 -11 -9 -18 5 -28 3 -32 -8 -6 -17 -36 -21 -36 -4 0 6 5 19 11 30 11 22 41
18 68 -9z m806 -57 c-10 -42 -20 -74 -22 -71 -6 5 15 135 24 149 15 24 14 -11
-2 -78z m-765 65 c0 -5 -5 -10 -11 -10 -5 0 -7 5 -4 10 3 6 8 10 11 10 2 0 4
-4 4 -10z m30 -16 c0 -9 -82 -128 -108 -156 -13 -15 -30 -51 -37 -80 l-13 -53
-21 45 c-26 57 -31 220 -7 220 8 0 17 -4 21 -9 3 -6 34 1 73 14 69 24 92 29
92 19z m756 -91 c-10 -10 -19 5 -10 18 6 11 8 11 12 0 2 -7 1 -15 -2 -18z m-3
-56 c-5 -7 -15 -31 -23 -55 -16 -50 -35 -71 -52 -54 -8 8 -6 22 5 50 19 46 70
104 75 84 2 -7 0 -18 -5 -25z m-1102 -250 c7 -37 15 -65 18 -62 3 3 4 44 2 90
-1 47 1 85 6 85 4 0 21 -37 38 -83 26 -74 30 -79 35 -52 6 30 6 30 18 8 7 -13
11 -49 10 -83 l-2 -60 -66 6 c-36 4 -80 13 -98 20 l-34 14 5 87 c2 49 7 99 11
113 6 22 5 23 -4 5 -9 -18 -10 -18 -6 5 3 14 11 59 18 100 l12 75 12 -100 c7
-55 18 -130 25 -168z m784 -133 c-124 -108 -150 -122 -207 -102 -27 10 -28 11
-10 23 10 8 59 30 109 50 50 20 99 43 109 50 39 29 37 13 -1 -21z m-872 -279
c53 -52 118 -106 143 -121 45 -26 45 -27 39 -68 -4 -22 -9 -43 -10 -44 -2 -2
-40 24 -85 58 l-81 61 7 -68 6 -68 -47 45 c-25 25 -50 52 -55 60 -8 15 -26
240 -19 240 2 0 48 -43 102 -95z m919 58 c10 -14 29 -18 78 -19 65 -1 180 -39
188 -62 2 -8 -54 -47 -136 -96 -23 -13 -26 24 -3 40 11 8 21 25 21 37 0 21 -4
22 -62 20 -59 -3 -158 11 -185 26 -9 4 -6 15 8 39 24 37 69 44 91 15z m-253
-176 c7 -32 16 -56 18 -53 3 3 0 28 -7 56 -7 28 -10 54 -6 57 3 3 27 -2 53
-11 70 -24 89 -27 191 -29 79 -2 95 -5 104 -20 5 -10 8 -20 6 -22 -17 -17
-315 -174 -324 -171 -6 2 -15 1 -20 -4 -10 -10 -96 17 -106 33 -12 20 -19 117
-13 173 l7 55 42 -3 41 -3 14 -58z m-569 -119 c42 -71 45 -83 17 -72 -14 5
-97 150 -97 170 0 18 42 -34 80 -98z m459 -35 c1 -23 -14 -29 -36 -15 -10 6
-9 21 4 67 l18 60 7 -45 c3 -25 7 -55 7 -67z m221 -26 c0 -2 -29 -23 -65 -46
-36 -24 -63 -46 -61 -50 9 -14 -65 -11 -118 4 l-54 16 11 34 c12 40 8 40 121
20 83 -15 88 -14 124 4 40 22 42 23 42 18z m-1338 -123 c-24 -14 -46 -24 -49
-21 -5 6 65 46 82 46 6 1 -9 -11 -33 -25z m596 -30 c78 -38 161 -123 200 -205
39 -81 39 -92 6 -118 -36 -28 -47 -26 -62 8 -30 68 -95 153 -149 195 -73 58
-136 80 -213 74 l-59 -4 21 29 c46 64 150 73 256 21z m-535 -70 c58 -30 149
-106 139 -116 -6 -6 -34 8 -75 37 l-66 46 -62 -21 c-85 -28 -101 -26 -63 8 17
15 34 35 37 45 8 22 48 22 90 1z m957 -191 c41 -48 102 -119 135 -158 l60 -70
-53 44 c-60 49 -242 242 -242 254 1 5 -11 17 -25 29 -21 16 -24 23 -13 35 10
13 15 11 37 -15 15 -17 60 -70 101 -119z m-794 0 c-16 -24 -26 -51 -26 -75 0
-59 47 -86 178 -103 29 -4 51 -9 49 -12 -3 -2 -29 -11 -58 -19 -47 -12 -61
-12 -106 1 -92 27 -126 98 -87 181 16 33 62 79 71 70 3 -2 -7 -22 -21 -43z
m2139 -53 c7 -22 6 -23 -9 -11 -9 7 -16 25 -16 40 1 29 11 17 25 -29z m-2311
-20 c-6 -6 -63 -19 -127 -29 -79 -13 -139 -30 -183 -50 -45 -21 -71 -28 -85
-22 -20 7 -19 10 19 40 34 27 56 34 134 46 174 27 259 32 242 15z m1861 -108
c58 -33 146 -68 212 -82 25 -6 59 -21 77 -34 17 -13 38 -26 46 -30 8 -4 4 1
-9 11 -14 10 -34 26 -45 35 -21 16 -21 17 -1 23 42 13 70 31 81 52 l10 22 32
-22 c38 -27 39 -32 7 -80 -51 -75 -139 -89 -241 -37 -52 26 -180 122 -279 209
-53 46 -42 48 13 3 26 -22 70 -53 97 -70z m-734 51 c13 -16 12 -17 -3 -4 -10
7 -18 15 -18 17 0 8 8 3 21 -13z m589 -8 c0 -14 -4 -25 -10 -25 -11 0 -14 33
-3 43 11 11 13 8 13 -18z m-1796 -59 c30 -12 95 -81 85 -90 -2 -2 -14 -9 -27
-15 -20 -11 -28 -8 -69 28 -25 23 -53 41 -61 41 -12 0 -10 6 8 25 28 29 22 28
64 11z m534 -53 c-43 -46 -61 -83 -78 -152 -15 -59 -19 -66 -41 -66 -21 0 -24
4 -21 30 10 95 59 191 105 204 56 16 63 13 35 -16z m757 7 c10 -11 16 -20 13
-20 -3 0 -13 9 -23 20 -10 11 -16 20 -13 20 3 0 13 -9 23 -20z m459 4 c21 -8
20 -14 -10 -79 -20 -42 -36 -61 -65 -76 -21 -10 -43 -19 -48 -19 -6 0 -48 36
-93 81 -62 60 -77 79 -58 75 14 -4 51 -13 83 -22 65 -17 111 -9 142 26 20 22
25 23 49 14z m-409 -54 c10 -11 16 -20 13 -20 -3 0 -13 9 -23 20 -10 11 -16
20 -13 20 3 0 13 -9 23 -20z m-1194 -97 c26 -61 24 -73 -8 -73 -24 0 -31 7
-48 47 -11 26 -22 51 -23 55 -4 10 40 28 51 21 5 -3 17 -25 28 -50z m819 -312
c0 -66 -1 -69 -26 -75 -15 -4 -28 -6 -29 -4 -2 2 -5 30 -6 63 -3 59 -3 60 24
59 17 -1 27 4 27 12 0 8 2 14 5 14 3 0 5 -31 5 -69z m-690 -160 c11 -40 8 -47
-24 -53 -20 -4 -25 1 -35 32 -16 52 -15 55 19 55 26 0 32 -5 40 -34z m678
-248 c-28 -39 -49 -54 -133 -94 -55 -26 -111 -50 -125 -52 -14 -2 -20 -2 -13
0 9 3 10 9 1 22 -8 14 -22 17 -62 15 l-51 -3 52 8 c47 8 279 105 328 138 36
24 37 14 3 -34z m543 30 c13 -16 12 -17 -3 -4 -17 13 -22 21 -14 21 2 0 10 -8
17 -17z m-30 -90 c13 -16 12 -17 -3 -4 -17 13 -22 21 -14 21 2 0 10 -8 17 -17z
m39 -48 c13 -14 21 -25 18 -25 -2 0 -15 11 -28 25 -13 14 -21 25 -18 25 2 0
15 -11 28 -25z m-258 -18 c31 -25 43 -40 41 -58 0 -13 -2 -61 -3 -106 -2 -46
-5 -83 -7 -83 -3 0 -17 8 -31 18 -15 10 -34 21 -43 24 -12 5 -18 26 -22 84
-15 170 -10 178 65 121z m161 -139 c21 -25 26 -188 4 -188 -7 0 -35 15 -62 34
l-50 33 3 107 3 107 42 -37 c23 -20 50 -45 60 -56z"/>
<path d="M1725 3260 c-3 -5 -2 -10 4 -10 5 0 13 5 16 10 3 6 2 10 -4 10 -5 0
-13 -4 -16 -10z"/>
<path d="M2101 2999 c-7 -22 -10 -43 -7 -46 2 -3 10 14 16 37 15 55 7 63 -9 9z"/>
<path d="M1795 2790 c3 -5 18 -10 32 -10 32 0 28 5 -10 14 -19 4 -26 3 -22 -4z"/>
<path d="M1650 2765 c-10 -12 -10 -15 2 -15 8 0 15 7 15 15 0 8 -1 15 -2 15
-2 0 -8 -7 -15 -15z"/>
<path d="M1855 3240 c3 -5 8 -10 11 -10 2 0 4 5 4 10 0 6 -5 10 -11 10 -5 0
-7 -4 -4 -10z"/>
<path d="M1732 2200 c0 -14 3 -45 7 -70 l8 -45 1 40 c0 22 -4 54 -8 70 -7 27
-8 28 -8 5z"/>
<path d="M1797 2183 c-13 -21 -45 -121 -50 -156 -6 -35 -4 -37 11 -26 33 25
72 82 44 65 -4 -2 -14 -1 -22 4 -11 7 -10 17 8 61 12 29 20 54 18 56 -2 2 -6
0 -9 -4z"/>
<path d="M1632 2020 c0 -14 2 -19 5 -12 2 6 2 18 0 25 -3 6 -5 1 -5 -13z"/>
<path d="M1680 1940 c0 -5 7 -7 15 -4 8 4 15 8 15 10 0 2 -7 4 -15 4 -8 0 -15
-4 -15 -10z"/>
<path d="M3232 3590 c0 -14 4 -36 8 -50 8 -24 8 -24 8 5 0 17 -3 39 -8 50 -8
18 -9 18 -8 -5z"/>
<path d="M3254 3475 c4 -22 16 -89 26 -150 10 -60 18 -94 19 -75 1 38 -37 252
-46 260 -3 3 -3 -13 1 -35z"/>
<path d="M2336 2939 c-4 -23 -5 -44 -2 -46 2 -2 7 14 11 37 4 23 5 43 2 46 -2
3 -7 -14 -11 -37z"/>
</g>
</svg>
