<?xml version="1.0" standalone="no"?>
<!DOCTYPE svg PUBLIC "-//W3C//DTD SVG 20010904//EN"
 "http://www.w3.org/TR/2001/REC-SVG-20010904/DTD/svg10.dtd">
<svg version="1.0" xmlns="http://www.w3.org/2000/svg"
 width="250.000000pt" height="232.000000pt" viewBox="0 0 250.000000 232.000000"
 preserveAspectRatio="xMidYMid meet">
<metadata>
Created by potrace 1.16, written by Peter Selinger 2001-2019
</metadata>
<g transform="translate(0.000000,232.000000) scale(0.100000,-0.100000)"
fill="#000000" stroke="none">
<path d="M2010 2236 c-68 -20 -217 -82 -230 -96 -3 -3 -16 -11 -30 -19 -14 -8
-34 -19 -44 -25 -11 -6 -25 -14 -30 -19 -6 -4 -32 -21 -59 -38 -64 -42 -144
-115 -135 -124 4 -4 31 5 60 20 132 69 168 84 226 95 88 18 162 6 215 -33 74
-57 111 -170 88 -273 -22 -99 -31 -126 -68 -204 -70 -146 -170 -274 -321 -410
-104 -94 -96 -86 -167 -140 -33 -25 -62 -47 -65 -50 -3 -3 -25 -19 -50 -35
-25 -16 -81 -55 -125 -86 -44 -30 -122 -79 -173 -109 -51 -29 -91 -55 -88 -57
2 -2 12 0 23 6 10 5 45 22 78 37 33 15 62 29 65 33 3 3 25 16 50 28 25 13 61
33 82 45 20 13 62 38 93 56 32 19 63 38 69 43 6 5 59 42 117 83 59 40 113 78
120 85 8 6 39 30 69 54 30 23 62 49 71 57 8 8 35 31 59 50 42 33 212 200 256
251 34 40 124 168 124 178 0 5 3 11 8 13 9 4 65 119 91 188 26 71 42 186 35
247 -10 71 -36 108 -102 140 -78 38 -202 42 -312 9z"/>
<path d="M435 1784 c-181 -44 -293 -124 -353 -252 -26 -54 -27 -65 -27 -212 0
-157 5 -186 52 -320 37 -108 136 -292 228 -423 41 -58 191 -211 240 -245 22
-15 42 -29 45 -32 27 -28 262 -150 288 -150 8 0 28 -7 45 -15 38 -17 93 -31
202 -52 146 -27 508 -17 590 16 11 5 54 21 95 37 41 15 81 32 88 38 41 32 81
76 103 111 21 36 24 51 24 145 0 80 -4 113 -18 139 -19 38 -22 61 -8 61 19 0
52 61 62 115 11 58 0 192 -20 259 -35 114 -65 204 -75 224 -11 22 -13 21 -87
-40 -120 -99 -142 -118 -167 -136 -13 -9 -34 -26 -47 -37 -14 -11 -69 -49
-124 -85 -55 -36 -100 -68 -101 -71 0 -4 21 -12 47 -18 55 -14 113 -47 168
-96 22 -19 59 -50 82 -68 23 -17 43 -36 43 -40 0 -5 -14 3 -32 18 -29 24 -33
25 -44 11 -6 -9 -15 -39 -18 -68 -4 -28 -15 -67 -26 -87 -44 -86 -166 -169
-287 -193 -75 -15 -310 -15 -393 1 -66 12 -205 60 -197 67 2 3 16 0 30 -5 30
-11 27 -16 52 94 8 39 23 86 31 105 29 63 95 141 147 174 49 31 192 86 224 86
14 0 114 61 138 83 7 7 23 19 35 27 13 8 30 22 39 31 9 9 23 20 33 25 19 10
98 79 163 139 33 32 43 47 38 63 -5 22 10 31 22 12 9 -14 93 77 134 145 18 29
7 54 -53 122 -75 85 -170 105 -271 58 -52 -25 -100 -67 -195 -170 -25 -26 -65
-57 -90 -69 -60 -27 -172 -66 -188 -66 -8 0 -28 -6 -45 -14 -113 -50 -251 -67
-322 -40 -24 10 -77 16 -135 17 -79 1 -103 -3 -142 -22 -63 -29 -98 -77 -107
-143 -6 -46 -8 -50 -16 -28 -4 14 -8 72 -8 130 0 150 34 246 118 339 143 156
376 175 641 50 46 -22 98 -39 116 -39 l33 1 -30 25 c-16 14 -54 40 -83 57 -30
18 -66 39 -81 48 -75 45 -194 100 -256 119 -38 12 -81 26 -95 32 -27 11 -222
20 -255 12z"/>
</g>
</svg>
