<?xml version="1.0" encoding="UTF-8"?>
<svg width="26px" height="32px" viewBox="0 0 26 32" version="1.1" xmlns="http://www.w3.org/2000/svg" xmlns:xlink="http://www.w3.org/1999/xlink">
    <title>Apple_line</title>
    <g id="Guidelines" stroke="none" stroke-width="1" fill="none" fill-rule="evenodd">
        <g id="#2-copy" transform="translate(-472.000000, -357.000000)" fill="#050230" fill-rule="nonzero">
            <g id="Apple_line" transform="translate(472.000000, 357.000000)">
                <path d="M19.0311806,0.273819444 C19.0311806,0.273819444 16.1799306,0.286944444 14.1290972,2.99006944 C12.3053472,5.39381944 12.7697222,7.44965278 12.7697222,7.44965278 C12.7697222,7.44965278 15.2424306,7.87756944 17.4178472,5.26340278 C19.4551389,2.81527778 19.0311806,0.273819444 19.0311806,0.273819444 Z" id="Path"></path>
                <path d="M21.3301389,16.8154861 C21.3301389,12.6275694 24.7059722,10.9017361 24.7059722,10.9017361 C24.7059722,10.9017361 22.9799306,7.77986111 18.5926389,7.77986111 C16.0438889,7.77986111 14.0857639,9.23006944 13.0305556,9.23006944 C11.8015972,9.23006944 9.96680556,7.86673611 7.60284722,7.86673611 C3.96618056,7.86673611 0.0890972222,11.1229861 0.0890972222,17.3302778 C0.0890972222,23.6390278 4.66951389,31.4877778 8.29534722,31.4877778 C9.56097222,31.4877778 11.5040972,30.2129861 13.4622222,30.2129861 C15.3836806,30.2129861 16.8015972,31.4419444 18.6253472,31.4419444 C22.5959722,31.4419444 25.5355556,23.1679861 25.5355556,23.1679861 C25.5355556,23.1679861 21.3301389,21.5398611 21.3301389,16.8154861 Z" id="Path"></path>
            </g>
        </g>
    </g>
</svg>